<?xml version="1.0" encoding="utf-8"?>
<!-- Generator: Adobe Illustrator 16.0.0, SVG Export Plug-In . SVG Version: 6.00 Build 0)  -->
<!DOCTYPE svg PUBLIC "-//W3C//DTD SVG 1.1//EN" "http://www.w3.org/Graphics/SVG/1.1/DTD/svg11.dtd">
<svg version="1.1" id="Layer_1" xmlns="http://www.w3.org/2000/svg" xmlns:xlink="http://www.w3.org/1999/xlink" x="0px" y="0px"
	 width="150px" height="80px" viewBox="0 0 150 80" enable-background="new 0 0 150 80" xml:space="preserve">
<g id="Layer_1_1_">
	<g id="Layer_4">
		<g>
			<path fill="#636D00" d="M20.302,67.096c0,0,1.101-3.896-0.123-8c-1.224-4.105-3.61-9.481-8.017-10.693
				c-2.655-0.73-3.363-0.455-5.671-1.172S3.99,46.279,3.99,46.279s0.648,2.047,0.456,3.066c-0.192,1.021-0.996,4.041-0.694,5.438
				c0.3,1.396,1.761,5.616,6.592,8.898C15.175,66.963,20.302,67.096,20.302,67.096z"/>
			<path fill="#3E4400" d="M21.534,68.598l-0.615,0.166c0,0-1.025-1.719-2.454-3.948c-0.582-0.019-1.674-0.114-2.979-0.567
				c-1.871-0.646-3.792-1.538-3.947-1.609c0.238,0.076,3.694,1.174,4.486,1.242c0.579,0.051,1.45,0.1,1.913,0.123
				c-0.663-1.021-1.389-2.109-2.127-3.168c-0.525-0.006-1.745-0.05-2.691-0.299c-1.204-0.314-3.885-1.453-4.05-1.523
				c0.177,0.054,3.021,0.916,3.99,1.09c0.755,0.136,1.802,0.091,2.278,0.059c-0.541-0.761-1.085-1.494-1.607-2.156
				c-0.398-0.507-1.133-1.433-2.021-2.549c-0.497-0.037-1.378-0.128-2.312-0.346c-1.431-0.335-2.945-1.029-2.945-1.029
				s1.953,0.543,2.964,0.666c0.696,0.08,1.416,0.092,1.798,0.085c-1.062-1.33-2.271-2.852-3.363-4.22L5.95,50.266l1.59-0.041
				c-1.51-1.896-2.729-3.422-2.877-3.604c0.204,0.212,2.41,2.555,4.93,5.428l0.008,0.01c0,0,0.256-0.577,0.493-1.32
				c0.239-0.74,0.415-1.48,0.415-1.48s0.12,1.418-0.002,1.795c-0.102,0.31-0.378,1.194-0.476,1.502
				c1.012,1.162,2.063,2.395,3.036,3.597c0.093-0.205,0.259-0.611,0.451-1.271c0.295-0.982,0.578-2.354,0.603-2.478
				c-0.003,0.166-0.068,2.103-0.229,2.599c-0.137,0.416-0.419,1.217-0.525,1.52c0.357,0.447,0.703,0.886,1.03,1.313
				c0.363,0.476,0.73,0.964,1.091,1.464c0.129-0.188,0.387-0.593,0.677-1.271c0.407-0.951,0.74-2.563,0.762-2.661
				c0.002,0.115,0.018,1.951-0.548,3.274c-0.29,0.675-0.453,0.994-0.542,1.145c0.677,0.95,1.337,1.919,1.956,2.852
				c0,0,0.204-0.155,0.483-0.779c0.278-0.621,0.512-1.737,0.512-1.737s0.192,0.856,0.05,1.382c-0.112,0.43-0.597,1.264-0.769,1.551
				C20.06,66.074,21.534,68.598,21.534,68.598z"/>
		</g>
	</g>
</g>
<g id="Layer_8">
	<path fill="#FF0000" d="M116.258,56.438c0-5.43,1.383-9.658,4.146-12.684s6.615-4.537,11.551-4.537
		c5.063,0,8.961,1.487,11.699,4.457c2.736,2.973,4.105,7.137,4.105,12.491c0,3.886-0.6,7.075-1.795,9.563s-2.926,4.425-5.186,5.808
		c-2.26,1.384-5.078,2.076-8.449,2.076c-3.432,0-6.268-0.597-8.516-1.792c-2.246-1.194-4.068-3.087-5.465-5.672
		C116.955,63.561,116.258,60.325,116.258,56.438z M125.652,56.482c0,3.359,0.57,5.771,1.711,7.238
		c1.143,1.467,2.691,2.198,4.656,2.198c2.018,0,3.58-0.717,4.688-2.153c1.105-1.437,1.658-4.016,1.658-7.737
		c0-3.13-0.578-5.418-1.73-6.861C135.48,47.723,133.912,47,131.936,47c-1.895,0-3.414,0.732-4.563,2.2
		C126.227,50.667,125.652,53.096,125.652,56.482z"/>
	<path fill="#FF0000" d="M80.875,56.438c0-5.43,1.383-9.658,4.146-12.684c2.768-3.025,6.615-4.537,11.553-4.537
		c5.063,0,8.959,1.487,11.697,4.457c2.738,2.973,4.105,7.137,4.105,12.491c0,3.886-0.598,7.075-1.793,9.563
		c-1.197,2.488-2.926,4.425-5.186,5.808c-2.262,1.384-5.078,2.076-8.453,2.076c-3.428,0-6.266-0.597-8.514-1.792
		c-2.246-1.194-4.066-3.087-5.463-5.672C81.574,63.561,80.875,60.325,80.875,56.438z M90.27,56.482c0,3.359,0.572,5.771,1.711,7.238
		c1.141,1.467,2.693,2.198,4.658,2.198c2.016,0,3.58-0.717,4.686-2.153s1.658-4.016,1.658-7.737c0-3.13-0.576-5.418-1.73-6.861
		C100.098,47.723,98.531,47,96.555,47c-1.895,0-3.414,0.732-4.563,2.2C90.844,50.667,90.27,53.096,90.27,56.482z"/>
	<path fill="#FF0000" d="M50.7,39.784h28.558v8.213h-9.582v25.047h-9.395V47.998h-9.582L50.7,39.784L50.7,39.784z"/>
	<path fill="#FF0000" d="M51.496,27.575c-4.381,11.341-20.216,7.209-22.818,19.75c-0.291,1.411-0.409,2.771-0.409,4.101v0.125h8.849
		V39.75h9.403v33.371h-9.403v-13.46H29.44c1.272,4.239,3.25,7.929,4.824,11.799H20.673c0,0-2.888-0.973-4.771-14.561
		c-1.878-13.589,6.731-24.624,16.937-26.69c13.068-2.646,16.533-12.746,11.09-17.069c-4.875-3.873-7.911,0.468-11.866,3.635
		c-7.36,5.889-13.701-2.071-11.263-6.313c2.997-5.205,7.052-0.812,7.052-0.812s-4.681-1.982-5.045,2.008
		c-0.322,2.585,1.843,3.908,4.662,3.37c2.277-0.435,5.747-6.992,10.986-8.372c4.029-1.058,7.824,0.238,10.439,2.698
		C51.496,11.805,55.46,17.3,51.496,27.575z"/>
	<g id="Layer_5">
		<g>
			<ellipse fill="#FFFFFF" cx="17.566" cy="54.301" rx="1.084" ry="1.048"/>
			<ellipse fill="#FFFFFF" cx="18.433" cy="58.203" rx="1.084" ry="1.048"/>
			<ellipse fill="#FFFFFF" cx="17.458" cy="50.935" rx="0.976" ry="0.943"/>
			<ellipse fill="#FFFFFF" cx="17.656" cy="48.093" rx="0.777" ry="0.751"/>
			<ellipse fill="#FFFFFF" cx="17.95" cy="45.354" rx="0.637" ry="0.615"/>
			<ellipse fill="#FFFFFF" cx="18.696" cy="43.068" rx="0.515" ry="0.499"/>
			<ellipse fill="#FFFFFF" cx="19.641" cy="40.977" rx="0.438" ry="0.422"/>
			<ellipse fill="#FFFFFF" cx="20.658" cy="39.384" rx="0.288" ry="0.278"/>
		</g>
		<ellipse fill="#FFFFFF" cx="27.815" cy="48.621" rx="0.365" ry="0.354"/>
		<ellipse fill="#FFFFFF" cx="27.826" cy="47.124" rx="0.493" ry="0.478"/>
		<path fill="#FFFFFF" d="M28.861,45.246c0,0.327-0.275,0.594-0.615,0.594s-0.616-0.267-0.616-0.594
			c0-0.329,0.277-0.596,0.616-0.596S28.861,44.917,28.861,45.246z"/>
		<path fill="#FFFFFF" d="M29.714,43.225c0,0.386-0.322,0.695-0.718,0.695s-0.72-0.311-0.72-0.695c0-0.381,0.323-0.694,0.72-0.694
			C29.391,42.531,29.714,42.844,29.714,43.225z"/>
		<path fill="#FFFFFF" d="M31.165,41.128c0,0.425-0.356,0.767-0.794,0.767s-0.794-0.34-0.794-0.767c0-0.423,0.355-0.766,0.794-0.766
			C30.809,40.363,31.165,40.706,31.165,41.128z"/>
		<path fill="#FFFFFF" d="M33.334,39.057c0,0.477-0.401,0.862-0.894,0.862c-0.493,0-0.894-0.386-0.894-0.862
			c0-0.479,0.401-0.863,0.894-0.863C32.933,38.193,33.334,38.579,33.334,39.057z"/>
		<path fill="#FFFFFF" d="M35.802,37.66c0,0.458-0.384,0.829-0.857,0.829c-0.472,0-0.857-0.371-0.857-0.829s0.385-0.827,0.857-0.827
			C35.418,36.834,35.802,37.203,35.802,37.66z"/>
		<path fill="#FFFFFF" d="M38.845,36.169c0,0.562-0.47,1.013-1.047,1.013c-0.577,0-1.047-0.453-1.047-1.013
			c0-0.559,0.47-1.012,1.047-1.012C38.375,35.157,38.845,35.61,38.845,36.169z"/>
		<path fill="#FFFFFF" d="M42.006,34.842c0,0.545-0.457,0.985-1.019,0.985s-1.02-0.44-1.02-0.985c0-0.544,0.457-0.985,1.02-0.985
			C41.55,33.856,42.006,34.298,42.006,34.842z"/>
		<path fill="#FFFFFF" d="M45.477,33.27c0,0.56-0.47,1.013-1.047,1.013s-1.046-0.453-1.046-1.013c0-0.558,0.469-1.011,1.046-1.011
			C45.008,32.259,45.477,32.712,45.477,33.27z"/>
		<path fill="#FFFFFF" d="M48.585,30.628c0,0.611-0.513,1.106-1.147,1.106c-0.631,0-1.146-0.495-1.146-1.106
			c0-0.612,0.514-1.109,1.146-1.109C48.073,29.519,48.585,30.016,48.585,30.628z"/>
		<path fill="#FFFFFF" d="M50.715,27.573c0,0.603-0.505,1.089-1.127,1.089c-0.622,0-1.127-0.487-1.127-1.089
			c0-0.601,0.505-1.089,1.127-1.089C50.21,26.484,50.715,26.971,50.715,27.573z"/>
		<path fill="#FFFFFF" d="M52.073,24.136c0,0.574-0.482,1.038-1.074,1.038c-0.592,0-1.074-0.464-1.074-1.038
			c0-0.574,0.482-1.039,1.074-1.039C51.591,23.097,52.073,23.563,52.073,24.136z"/>
		<path fill="#FFFFFF" d="M52.604,20.308c0,0.592-0.498,1.07-1.108,1.07c-0.612,0-1.109-0.479-1.109-1.07
			c0-0.591,0.497-1.071,1.109-1.071C52.106,19.238,52.604,19.717,52.604,20.308z"/>
		<path fill="#FFFFFF" d="M52.159,16.896c0,0.524-0.439,0.95-0.981,0.95c-0.541,0-0.981-0.425-0.981-0.95
			c0-0.524,0.44-0.947,0.981-0.947C51.72,15.949,52.159,16.372,52.159,16.896z"/>
		<path fill="#FFFFFF" d="M50.999,13.622c0,0.562-0.471,1.017-1.052,1.017c-0.58,0-1.052-0.455-1.052-1.017
			c0-0.561,0.473-1.017,1.052-1.017C50.529,12.605,50.999,13.061,50.999,13.622z"/>
		<path fill="#FFFFFF" d="M49.152,10.766c0,0.532-0.447,0.962-0.995,0.962c-0.55,0-0.996-0.43-0.996-0.962
			c0-0.53,0.446-0.962,0.996-0.962C48.706,9.804,49.152,10.236,49.152,10.766z"/>
		<path fill="#FFFFFF" d="M46.436,8.706c0,0.501-0.42,0.906-0.938,0.906s-0.94-0.405-0.94-0.906s0.421-0.908,0.94-0.908
			S46.436,8.204,46.436,8.706z"/>
		<path fill="#FFFFFF" d="M43.515,7.574c0,0.489-0.411,0.884-0.915,0.884s-0.914-0.395-0.914-0.884c0-0.488,0.41-0.883,0.914-0.883
			C43.104,6.69,43.515,7.086,43.515,7.574z"/>
		<path fill="#FFFFFF" d="M40.564,7.465c0,0.439-0.368,0.794-0.823,0.794c-0.453,0-0.821-0.355-0.821-0.794
			c0-0.438,0.368-0.794,0.821-0.794C40.196,6.671,40.564,7.027,40.564,7.465z"/>
		<path fill="#FFFFFF" d="M37.671,8.394c0,0.404-0.34,0.733-0.758,0.733c-0.417,0-0.757-0.328-0.757-0.733
			c0-0.405,0.34-0.731,0.757-0.731C37.331,7.663,37.671,7.99,37.671,8.394z"/>
		<path fill="#FFFFFF" d="M35.594,9.867c0,0.452-0.381,0.819-0.849,0.819c-0.468,0-0.848-0.367-0.848-0.819
			c0-0.454,0.379-0.82,0.848-0.82C35.212,9.047,35.594,9.413,35.594,9.867z"/>
		<path fill="#FFFFFF" d="M33.611,11.702c0,0.378-0.316,0.682-0.706,0.682c-0.389,0-0.706-0.304-0.706-0.682
			c0-0.376,0.316-0.682,0.706-0.682C33.295,11.02,33.611,11.326,33.611,11.702z"/>
		<path fill="#FFFFFF" d="M31.686,13.535c0,0.385-0.322,0.696-0.72,0.696c-0.398,0-0.721-0.313-0.721-0.696s0.323-0.695,0.721-0.695
			C31.364,12.84,31.686,13.151,31.686,13.535z"/>
		<path fill="#FFFFFF" d="M29.806,14.966c0,0.346-0.29,0.625-0.648,0.625c-0.357,0-0.647-0.279-0.647-0.625
			c0-0.347,0.29-0.627,0.647-0.627C29.516,14.339,29.806,14.619,29.806,14.966z"/>
		<path fill="#FFFFFF" d="M27.344,15.896c0,0.31-0.261,0.562-0.583,0.562c-0.32,0-0.581-0.251-0.581-0.562s0.261-0.563,0.581-0.563
			C27.083,15.333,27.344,15.585,27.344,15.896z"/>
		<path fill="#FFFFFF" d="M24.94,15.695c0,0.305-0.257,0.552-0.572,0.552s-0.572-0.248-0.572-0.552c0-0.306,0.256-0.552,0.572-0.552
			S24.94,15.388,24.94,15.695z"/>
		<path fill="#FFFFFF" d="M23.171,14.127c0,0.221-0.186,0.4-0.415,0.4c-0.228,0-0.413-0.179-0.413-0.4c0-0.221,0.186-0.4,0.413-0.4
			C22.985,13.727,23.171,13.906,23.171,14.127z"/>
		<ellipse fill="#FFFFFF" cx="22.235" cy="12.188" rx="0.399" ry="0.385"/>
		<ellipse fill="#FFFFFF" cx="22.503" cy="10.597" rx="0.355" ry="0.343"/>
		<ellipse fill="#FFFFFF" cx="23.433" cy="9.356" rx="0.292" ry="0.282"/>
		<ellipse fill="#FFFFFF" cx="24.578" cy="8.838" rx="0.26" ry="0.251"/>
		<ellipse fill="#FFFFFF" cx="25.504" cy="8.809" rx="0.216" ry="0.208"/>
		<ellipse fill="#FFFFFF" cx="26.5" cy="8.969" rx="0.189" ry="0.183"/>
	</g>
</g>
<g id="Layer_3">
	<path fill="#95AC02" d="M35.831,72.336c0,0-2.074-5.275-6.917-8.818c-4.844-3.541-12.058-7.514-17.999-5.131
		c-3.579,1.435-4.138,2.34-7.319,3.496C0.416,63.04,0,62.938,0,62.938s2.457,1.736,3.107,3.039c0.652,1.301,2.314,5.35,3.832,6.648
		c1.518,1.303,6.722,4.771,14.891,4.338C29.998,76.528,35.831,72.336,35.831,72.336z"/>
	<path fill="#778A06" d="M38.476,72.965l-0.547,0.709c0,0-2.598-1.05-6.08-2.326c-0.664,0.475-1.965,1.291-3.804,1.894
		c-2.632,0.862-5.53,1.496-5.764,1.549c0.329-0.118,5.113-1.823,6.054-2.417c0.69-0.433,1.701-1.12,2.238-1.482
		c-1.604-0.576-3.335-1.176-5.057-1.73c-0.59,0.438-1.986,1.422-3.253,1.947c-1.609,0.668-5.564,1.669-5.807,1.73
		c0.243-0.092,4.146-1.535,5.373-2.164c0.954-0.49,2.086-1.427,2.589-1.865c-1.249-0.391-2.476-0.746-3.621-1.045
		c-0.872-0.226-2.477-0.639-4.411-1.129c-0.586,0.379-1.644,1.024-2.872,1.57c-1.878,0.842-4.155,1.35-4.155,1.35
		s2.638-1.051,3.869-1.771c0.846-0.498,1.657-1.097,2.078-1.426c-2.312-0.587-4.949-1.259-7.325-1.857l-2.416,1.224l1.739-1.394
		c-3.292-0.837-5.942-1.503-6.262-1.583c0.408,0.064,4.853,0.809,10.096,1.879l0.018,0.006c0,0-0.204-0.863-0.568-1.893
		c-0.36-1.027-0.795-2.004-0.795-2.004s1.336,1.479,1.519,2.004c0.146,0.43,0.589,1.652,0.74,2.077
		c2.114,0.438,4.329,0.925,6.433,1.438c-0.069-0.306-0.229-0.899-0.572-1.8c-0.503-1.343-1.349-3.112-1.427-3.274
		c0.139,0.192,1.705,2.403,1.947,3.096c0.2,0.58,0.564,1.712,0.702,2.141c0.776,0.194,1.532,0.391,2.26,0.59
		c0.807,0.221,1.631,0.457,2.455,0.707c-0.014-0.314-0.069-0.988-0.321-1.99c-0.352-1.404-1.344-3.483-1.405-3.612
		c0.099,0.125,1.674,2.159,2.164,4.116c0.247,0.998,0.338,1.492,0.364,1.734c1.562,0.485,3.119,1.006,4.598,1.522
		c0,0,0.096-0.349-0.122-1.28c-0.217-0.928-0.902-2.371-0.902-2.371s0.942,0.793,1.228,1.499c0.238,0.573,0.403,1.914,0.456,2.382
		C34.694,71.401,38.476,72.965,38.476,72.965z"/>
</g>
<g id="Chilli">
	<path fill="#FF0000" d="M51.026,32.799c0,0,4.979,3.63,11.098,2.648c8.917-1.431,9.581-4.481,11.003-5.149
		c1.598-0.748,3.58,1.02,3.842,1.641c0.258,0.619,0.637,1.952,0.15,2.609c-0.488,0.656-8.222,6.667-14.913,5.156
		C52.135,37.434,51.026,32.799,51.026,32.799z"/>
	<path fill="#329932" d="M79.658,25.571l-1.592,0.294c0,0,1.084,0.085,1.383,1.021c0.805,2.508-3.273,3.953-3.273,3.953
		l-1.241-0.529c0,0,0.354,0.061,0.427,0.751c0.073,0.688-0.146,0.923-0.146,0.923s0.717,0.017,0.897,0.367
		c0.182,0.351-0.018,1.027-0.018,1.027s0.588-0.746,0.863-0.446c0.277,0.3,0.506,0.778,0.506,0.778l-0.242-1.894
		c0,0,1.217-0.7,1.936-1.367c0.973-0.896,1.131-2.318,1.254-3.157c0.105-0.713-0.17-2.418-0.17-2.418L79.658,25.571z"/>
</g>
</svg>
