<?xml version="1.0" encoding="utf-8"?>
<!-- Generator: Adobe Illustrator 16.0.0, SVG Export Plug-In . SVG Version: 6.00 Build 0)  -->
<!DOCTYPE svg PUBLIC "-//W3C//DTD SVG 1.1//EN" "http://www.w3.org/Graphics/SVG/1.1/DTD/svg11.dtd">
<svg version="1.1" id="Layer_1" xmlns="http://www.w3.org/2000/svg" xmlns:xlink="http://www.w3.org/1999/xlink" x="0px" y="0px"
	 width="400px" height="80px" viewBox="0 0 400 80" enable-background="new 0 0 400 80" xml:space="preserve">
<g id="Layer_1_1_">
	<g id="Layer_4">
		<g>
			<path fill="#636D00" d="M20.787,67.313c0,0,0.995-3.521-0.111-7.229c-1.106-3.71-3.262-8.567-7.244-9.662
				c-2.398-0.659-3.039-0.411-5.125-1.059s-2.26-0.86-2.26-0.86s0.586,1.85,0.412,2.771c-0.173,0.924-0.899,3.651-0.627,4.912
				c0.271,1.261,1.591,5.075,5.957,8.04C16.155,67.192,20.787,67.313,20.787,67.313z"/>
			<path fill="#3E4400" d="M21.9,68.67l-0.556,0.15c0,0-0.926-1.554-2.216-3.568c-0.526-0.016-1.513-0.104-2.692-0.513
				c-1.69-0.584-3.425-1.39-3.565-1.454c0.214,0.068,3.337,1.061,4.053,1.121c0.523,0.047,1.31,0.09,1.729,0.112
				c-0.6-0.923-1.255-1.905-1.923-2.862c-0.474-0.006-1.576-0.045-2.431-0.271c-1.087-0.284-3.511-1.313-3.659-1.377
				c0.16,0.048,2.729,0.829,3.605,0.985c0.682,0.121,1.628,0.081,2.058,0.053c-0.489-0.688-0.981-1.351-1.452-1.95
				c-0.36-0.456-1.023-1.293-1.826-2.302c-0.449-0.033-1.245-0.115-2.088-0.313c-1.293-0.302-2.661-0.93-2.661-0.93
				s1.765,0.49,2.678,0.602c0.629,0.073,1.279,0.083,1.625,0.077c-0.959-1.202-2.052-2.577-3.039-3.813L7.82,52.104l1.437-0.036
				c-1.365-1.715-2.465-3.093-2.6-3.258c0.184,0.192,2.178,2.309,4.454,4.904l0.007,0.01c0,0,0.232-0.522,0.446-1.193
				c0.216-0.669,0.375-1.34,0.375-1.34s0.109,1.282-0.002,1.623c-0.092,0.278-0.342,1.079-0.43,1.356
				c0.914,1.05,1.864,2.164,2.743,3.25c0.084-0.186,0.234-0.553,0.408-1.147c0.267-0.889,0.522-2.127,0.545-2.239
				c-0.003,0.151-0.062,1.9-0.207,2.349c-0.124,0.376-0.379,1.1-0.475,1.373c0.322,0.404,0.634,0.8,0.93,1.187
				c0.328,0.429,0.66,0.87,0.986,1.321c0.117-0.168,0.35-0.535,0.612-1.148c0.368-0.859,0.668-2.314,0.688-2.404
				c0.001,0.104,0.017,1.763-0.495,2.96c-0.262,0.608-0.409,0.897-0.489,1.032c0.612,0.859,1.208,1.735,1.767,2.577
				c0,0,0.185-0.141,0.437-0.705c0.251-0.562,0.462-1.57,0.462-1.57s0.174,0.774,0.045,1.249c-0.101,0.388-0.539,1.141-0.694,1.401
				C20.568,66.39,21.9,68.67,21.9,68.67z"/>
		</g>
	</g>
</g>
<g id="Layer_8">
	<path fill="#FF0000" d="M107.488,57.682c0-4.906,1.25-8.727,3.748-11.459c2.499-2.733,5.978-4.101,10.438-4.101
		c4.573,0,8.095,1.344,10.569,4.027c2.473,2.687,3.709,6.448,3.709,11.287c0,3.511-0.54,6.393-1.62,8.64
		c-1.082,2.249-2.643,3.998-4.685,5.248c-2.043,1.25-4.589,1.876-7.636,1.876c-3.099,0-5.663-0.539-7.693-1.619
		s-3.677-2.789-4.938-5.125C108.119,64.118,107.488,61.194,107.488,57.682z M115.978,57.723c0,3.035,0.515,5.215,1.546,6.54
		c1.031,1.325,2.433,1.987,4.207,1.987c1.824,0,3.236-0.648,4.235-1.946c1-1.298,1.499-3.628,1.499-6.991
		c0-2.828-0.521-4.896-1.564-6.201c-1.043-1.305-2.458-1.957-4.245-1.957c-1.711,0-3.086,0.662-4.123,1.988
		C116.495,52.468,115.978,54.661,115.978,57.723z"/>
	<path fill="#FF0000" d="M75.519,57.682c0-4.906,1.249-8.727,3.748-11.459c2.499-2.733,5.978-4.101,10.438-4.101
		c4.573,0,8.096,1.344,10.569,4.027c2.474,2.687,3.71,6.448,3.71,11.287c0,3.511-0.54,6.393-1.621,8.64
		c-1.081,2.249-2.643,3.998-4.685,5.248S93.089,73.2,90.042,73.2c-3.099,0-5.663-0.539-7.693-1.619s-3.675-2.789-4.938-5.125
		C76.149,64.118,75.519,61.194,75.519,57.682z M84.007,57.723c0,3.035,0.516,5.215,1.546,6.54c1.031,1.325,2.434,1.987,4.208,1.987
		c1.823,0,3.235-0.648,4.234-1.946s1.499-3.628,1.499-6.991c0-2.828-0.521-4.896-1.564-6.201c-1.043-1.305-2.458-1.957-4.244-1.957
		c-1.712,0-3.086,0.662-4.123,1.988C84.526,52.468,84.007,54.661,84.007,57.723z"/>
	<path fill="#FF0000" d="M48.253,42.635h25.804v7.421h-8.658v22.632h-8.489V50.056h-8.658V42.635L48.253,42.635z"/>
	<path fill="#FF0000" d="M48.973,31.603c-3.958,10.247-18.266,6.513-20.617,17.845c-0.263,1.274-0.369,2.504-0.369,3.704v0.112
		h7.996V42.603h8.496v30.152h-8.496V60.594h-6.937c1.149,3.831,2.936,7.164,4.358,10.662H21.122c0,0-2.61-0.88-4.311-13.157
		c-1.697-12.277,6.082-22.249,15.303-24.115c11.808-2.39,14.938-11.517,10.021-15.423c-4.405-3.5-7.148,0.423-10.722,3.285
		c-6.65,5.321-12.379-1.872-10.177-5.704c2.708-4.703,6.372-0.733,6.372-0.733s-4.228-1.792-4.557,1.814
		c-0.291,2.335,1.665,3.531,4.212,3.044c2.057-0.392,5.192-6.317,9.926-7.563c3.641-0.956,7.07,0.215,9.433,2.438
		C48.973,17.354,52.555,22.319,48.973,31.603z"/>
	<g id="Layer_5">
		<g>
			<ellipse fill="#FFFFFF" cx="18.315" cy="55.751" rx="0.98" ry="0.947"/>
			<ellipse fill="#FFFFFF" cx="19.099" cy="59.278" rx="0.98" ry="0.947"/>
			<ellipse fill="#FFFFFF" cx="18.217" cy="52.71" rx="0.881" ry="0.852"/>
			<ellipse fill="#FFFFFF" cx="18.396" cy="50.142" rx="0.702" ry="0.679"/>
			<ellipse fill="#FFFFFF" cx="18.662" cy="47.667" rx="0.575" ry="0.556"/>
			<ellipse fill="#FFFFFF" cx="19.336" cy="45.602" rx="0.465" ry="0.451"/>
			<ellipse fill="#FFFFFF" cx="20.189" cy="43.711" rx="0.396" ry="0.381"/>
			<ellipse fill="#FFFFFF" cx="21.109" cy="42.273" rx="0.26" ry="0.251"/>
		</g>
		<ellipse fill="#FFFFFF" cx="27.576" cy="50.62" rx="0.33" ry="0.319"/>
		<ellipse fill="#FFFFFF" cx="27.585" cy="49.267" rx="0.446" ry="0.432"/>
		<path fill="#FFFFFF" d="M28.521,47.569c0,0.296-0.249,0.537-0.556,0.537s-0.556-0.241-0.556-0.537c0-0.297,0.25-0.538,0.556-0.538
			S28.521,47.272,28.521,47.569z"/>
		<path fill="#FFFFFF" d="M29.291,45.744c0,0.348-0.291,0.628-0.649,0.628c-0.358,0-0.65-0.28-0.65-0.628
			c0-0.346,0.292-0.628,0.65-0.628C29,45.116,29.291,45.398,29.291,45.744z"/>
		<path fill="#FFFFFF" d="M30.603,43.85c0,0.384-0.322,0.692-0.717,0.692c-0.396,0-0.717-0.309-0.717-0.692
			c0-0.383,0.321-0.692,0.717-0.692C30.281,43.157,30.603,43.468,30.603,43.85z"/>
		<path fill="#FFFFFF" d="M32.562,41.978c0,0.431-0.362,0.779-0.807,0.779s-0.808-0.349-0.808-0.779c0-0.432,0.362-0.78,0.808-0.78
			S32.562,41.546,32.562,41.978z"/>
		<path fill="#FFFFFF" d="M34.792,40.716c0,0.414-0.347,0.749-0.774,0.749c-0.427,0-0.774-0.335-0.774-0.749
			c0-0.413,0.347-0.747,0.774-0.747C34.445,39.969,34.792,40.303,34.792,40.716z"/>
		<path fill="#FFFFFF" d="M37.542,39.368c0,0.507-0.424,0.914-0.946,0.914c-0.521,0-0.946-0.409-0.946-0.914
			s0.424-0.914,0.946-0.914C37.118,38.454,37.542,38.863,37.542,39.368z"/>
		<path fill="#FFFFFF" d="M40.398,38.169c0,0.492-0.413,0.89-0.921,0.89c-0.507,0-0.921-0.397-0.921-0.89
			c0-0.492,0.413-0.891,0.921-0.891C39.986,37.278,40.398,37.677,40.398,38.169z"/>
		<path fill="#FFFFFF" d="M43.535,36.749c0,0.505-0.424,0.916-0.946,0.916c-0.521,0-0.945-0.41-0.945-0.916
			c0-0.504,0.424-0.914,0.945-0.914C43.11,35.835,43.535,36.245,43.535,36.749z"/>
		<path fill="#FFFFFF" d="M46.343,34.361c0,0.552-0.463,1-1.036,1c-0.57,0-1.035-0.448-1.035-1c0-0.553,0.465-1.002,1.035-1.002
			C45.879,33.359,46.343,33.808,46.343,34.361z"/>
		<path fill="#FFFFFF" d="M48.268,31.601c0,0.544-0.456,0.984-1.019,0.984c-0.562,0-1.018-0.44-1.018-0.984
			c0-0.543,0.457-0.984,1.018-0.984C47.812,30.617,48.268,31.058,48.268,31.601z"/>
		<path fill="#FFFFFF" d="M49.494,28.496c0,0.519-0.435,0.938-0.971,0.938c-0.535,0-0.97-0.419-0.97-0.938s0.436-0.938,0.97-0.938
			C49.059,27.558,49.494,27.978,49.494,28.496z"/>
		<path fill="#FFFFFF" d="M49.974,25.037c0,0.535-0.449,0.967-1.001,0.967s-1.002-0.433-1.002-0.967s0.45-0.968,1.002-0.968
			S49.974,24.502,49.974,25.037z"/>
		<path fill="#FFFFFF" d="M49.572,21.954c0,0.474-0.397,0.857-0.887,0.857c-0.489,0-0.887-0.384-0.887-0.857
			s0.398-0.856,0.887-0.856C49.175,21.098,49.572,21.48,49.572,21.954z"/>
		<path fill="#FFFFFF" d="M48.524,18.996c0,0.508-0.425,0.919-0.951,0.919c-0.524,0-0.951-0.411-0.951-0.919
			c0-0.507,0.427-0.919,0.951-0.919C48.099,18.076,48.524,18.488,48.524,18.996z"/>
		<path fill="#FFFFFF" d="M46.855,16.416c0,0.48-0.404,0.869-0.9,0.869c-0.497,0-0.9-0.389-0.9-0.869c0-0.48,0.403-0.87,0.9-0.87
			S46.855,15.936,46.855,16.416z"/>
		<path fill="#FFFFFF" d="M44.401,14.554c0,0.453-0.38,0.819-0.848,0.819c-0.469,0-0.849-0.367-0.849-0.819
			c0-0.453,0.38-0.82,0.849-0.82C44.021,13.733,44.401,14.101,44.401,14.554z"/>
		<path fill="#FFFFFF" d="M41.761,13.531c0,0.441-0.371,0.799-0.827,0.799c-0.455,0-0.826-0.357-0.826-0.799
			c0-0.441,0.371-0.798,0.826-0.798C41.39,12.732,41.761,13.09,41.761,13.531z"/>
		<path fill="#FFFFFF" d="M39.095,13.432c0,0.397-0.333,0.718-0.743,0.718c-0.41,0-0.742-0.321-0.742-0.718
			c0-0.396,0.333-0.717,0.742-0.717C38.762,12.715,39.095,13.036,39.095,13.432z"/>
		<path fill="#FFFFFF" d="M36.481,14.272c0,0.365-0.307,0.662-0.685,0.662c-0.377,0-0.684-0.296-0.684-0.662
			c0-0.366,0.307-0.661,0.684-0.661C36.174,13.611,36.481,13.907,36.481,14.272z"/>
		<path fill="#FFFFFF" d="M34.604,15.603c0,0.409-0.344,0.741-0.767,0.741s-0.766-0.332-0.766-0.741c0-0.41,0.343-0.741,0.766-0.741
			S34.604,15.193,34.604,15.603z"/>
		<path fill="#FFFFFF" d="M32.813,17.261c0,0.341-0.286,0.616-0.638,0.616c-0.351,0-0.637-0.275-0.637-0.616
			c0-0.34,0.286-0.616,0.637-0.616C32.527,16.645,32.813,16.921,32.813,17.261z"/>
		<path fill="#FFFFFF" d="M31.073,18.917c0,0.348-0.292,0.629-0.651,0.629c-0.358,0-0.651-0.281-0.651-0.629
			c0-0.347,0.292-0.628,0.651-0.628C30.782,18.289,31.073,18.57,31.073,18.917z"/>
		<path fill="#FFFFFF" d="M29.375,20.21c0,0.313-0.262,0.565-0.585,0.565c-0.323,0-0.584-0.252-0.584-0.565
			c0-0.313,0.262-0.566,0.584-0.566C29.112,19.644,29.375,19.896,29.375,20.21z"/>
		<path fill="#FFFFFF" d="M27.15,21.051c0,0.28-0.236,0.507-0.526,0.507c-0.29,0-0.525-0.227-0.525-0.507
			c0-0.281,0.236-0.509,0.525-0.509C26.914,20.542,27.15,20.77,27.15,21.051z"/>
		<path fill="#FFFFFF" d="M24.978,20.868c0,0.275-0.232,0.5-0.517,0.5c-0.285,0-0.517-0.224-0.517-0.5
			c0-0.276,0.232-0.499,0.517-0.499C24.747,20.369,24.978,20.592,24.978,20.868z"/>
		<path fill="#FFFFFF" d="M23.379,19.452c0,0.2-0.168,0.362-0.375,0.362c-0.206,0-0.373-0.162-0.373-0.362
			c0-0.199,0.167-0.361,0.373-0.361C23.211,19.09,23.379,19.252,23.379,19.452z"/>
		<ellipse fill="#FFFFFF" cx="22.534" cy="17.7" rx="0.36" ry="0.348"/>
		<ellipse fill="#FFFFFF" cx="22.776" cy="16.262" rx="0.321" ry="0.31"/>
		<ellipse fill="#FFFFFF" cx="23.617" cy="15.141" rx="0.264" ry="0.255"/>
		<ellipse fill="#FFFFFF" cx="24.65" cy="14.673" rx="0.234" ry="0.227"/>
		<ellipse fill="#FFFFFF" cx="25.487" cy="14.647" rx="0.195" ry="0.188"/>
		<ellipse fill="#FFFFFF" cx="26.387" cy="14.792" rx="0.171" ry="0.165"/>
	</g>
</g>
<g id="Layer_3">
	<path fill="#95AC02" d="M34.819,72.047c0,0-1.874-4.768-6.25-7.969c-4.376-3.2-10.895-6.788-16.263-4.637
		c-3.234,1.297-3.739,2.116-6.613,3.16c-2.874,1.046-3.25,0.954-3.25,0.954s2.22,1.567,2.808,2.744
		c0.588,1.176,2.09,4.833,3.462,6.009s6.074,4.312,13.455,3.918C29.549,75.835,34.819,72.047,34.819,72.047z"/>
	<path fill="#778A06" d="M37.209,72.616l-0.494,0.64c0,0-2.348-0.948-5.494-2.102c-0.6,0.428-1.775,1.165-3.437,1.71
		c-2.379,0.779-4.997,1.352-5.208,1.398c0.297-0.106,4.62-1.646,5.47-2.183c0.624-0.392,1.537-1.012,2.022-1.341
		c-1.45-0.521-3.014-1.063-4.569-1.563c-0.533,0.396-1.795,1.285-2.939,1.76c-1.454,0.604-5.028,1.508-5.247,1.563
		c0.219-0.082,3.746-1.388,4.855-1.955c0.862-0.442,1.885-1.289,2.339-1.686c-1.128-0.353-2.237-0.674-3.272-0.944
		c-0.788-0.203-2.238-0.576-3.985-1.019c-0.529,0.341-1.485,0.925-2.595,1.418c-1.697,0.761-3.754,1.219-3.754,1.219
		s2.383-0.948,3.496-1.599c0.765-0.451,1.498-0.991,1.877-1.289c-2.089-0.529-4.472-1.136-6.619-1.678l-2.183,1.105l1.571-1.259
		c-2.974-0.756-5.369-1.358-5.659-1.431c0.368,0.06,4.385,0.73,9.123,1.697l0.016,0.005c0,0-0.184-0.779-0.513-1.709
		c-0.325-0.929-0.718-1.811-0.718-1.811s1.208,1.336,1.372,1.811c0.133,0.389,0.533,1.493,0.669,1.877
		c1.909,0.396,3.912,0.836,5.812,1.301c-0.062-0.276-0.208-0.813-0.517-1.627c-0.455-1.213-1.219-2.813-1.29-2.958
		c0.125,0.173,1.54,2.171,1.759,2.795c0.181,0.524,0.51,1.548,0.635,1.936c0.701,0.176,1.384,0.353,2.042,0.532
		c0.729,0.2,1.474,0.412,2.218,0.64c-0.012-0.286-0.063-0.894-0.29-1.799c-0.317-1.27-1.215-3.147-1.27-3.265
		c0.09,0.113,1.513,1.952,1.956,3.719c0.223,0.902,0.305,1.349,0.329,1.567c1.411,0.439,2.818,0.909,4.154,1.377
		c0,0,0.086-0.314-0.11-1.157c-0.196-0.838-0.815-2.143-0.815-2.143s0.851,0.717,1.109,1.355c0.215,0.518,0.364,1.729,0.412,2.151
		C33.791,71.202,37.209,72.616,37.209,72.616z"/>
</g>
<g id="Chilli">
	<path fill="#FF0000" d="M48.548,36.323c0,0,4.499,3.28,10.027,2.393c8.057-1.293,8.658-4.049,9.943-4.652
		c1.444-0.676,3.234,0.922,3.47,1.482c0.235,0.559,0.577,1.763,0.137,2.357c-0.44,0.593-7.428,6.022-13.474,4.659
		C49.55,40.511,48.548,36.323,48.548,36.323z"/>
	<path fill="#329932" d="M74.419,29.792l-1.438,0.266c0,0,0.979,0.077,1.25,0.922c0.727,2.266-2.96,3.572-2.96,3.572l-1.121-0.478
		c0,0,0.321,0.055,0.386,0.678c0.066,0.622-0.131,0.834-0.131,0.834s0.647,0.015,0.81,0.332c0.164,0.316-0.016,0.928-0.016,0.928
		s0.531-0.674,0.781-0.403c0.25,0.271,0.456,0.703,0.456,0.703l-0.218-1.711c0,0,1.098-0.632,1.749-1.234
		c0.877-0.81,1.021-2.094,1.133-2.853c0.096-0.644-0.154-2.185-0.154-2.185L74.419,29.792z"/>
</g>
<g>
	<path fill="#002656" d="M145.127,66.953l3.806-0.241c0.083,0.625,0.25,1.102,0.503,1.428c0.412,0.53,1,0.795,1.766,0.795
		c0.571,0,1.011-0.136,1.32-0.406s0.463-0.585,0.463-0.941c0-0.339-0.147-0.643-0.441-0.91s-0.978-0.521-2.049-0.759
		c-1.754-0.398-3.005-0.928-3.753-1.588c-0.754-0.661-1.13-1.503-1.13-2.525c0-0.673,0.193-1.308,0.578-1.905
		c0.386-0.599,0.966-1.068,1.74-1.41c0.774-0.342,1.835-0.513,3.184-0.513c1.654,0,2.916,0.311,3.784,0.932
		c0.868,0.622,1.385,1.611,1.55,2.968l-3.771,0.223c-0.1-0.589-0.311-1.018-0.631-1.285s-0.764-0.401-1.329-0.401
		c-0.465,0-0.815,0.1-1.051,0.299s-0.353,0.442-0.353,0.728c0,0.208,0.097,0.396,0.291,0.563c0.188,0.172,0.636,0.333,1.342,0.481
		c1.749,0.381,3.001,0.767,3.758,1.155c0.756,0.391,1.307,0.874,1.651,1.45c0.344,0.577,0.517,1.223,0.517,1.937
		c0,0.839-0.229,1.612-0.689,2.32c-0.459,0.708-1.101,1.245-1.925,1.61c-0.825,0.366-1.864,0.549-3.118,0.549
		c-2.202,0-3.727-0.428-4.574-1.284C145.719,69.362,145.239,68.274,145.127,66.953z"/>
	<path fill="#002656" d="M158.877,58.199h10.721v2.793h-6.711v2.079h6.226v2.668h-6.226v2.579h6.906v2.963h-10.915V58.199z"/>
	<path fill="#002656" d="M179.905,69.122h-4.542l-0.631,2.159h-4.084l4.866-13.082h4.364l4.865,13.082h-4.189L179.905,69.122z
		 M179.076,66.293l-1.429-4.703l-1.414,4.703H179.076z"/>
	<path fill="#002656" d="M186.031,58.199h9.891v2.811h-5.873v2.285h5.016v2.641h-5.016v5.346h-4.018V58.199z"/>
	<path fill="#002656" d="M197.573,64.749c0-2.136,0.588-3.798,1.766-4.988c1.177-1.189,2.817-1.784,4.918-1.784
		c2.155,0,3.815,0.584,4.98,1.753c1.166,1.169,1.749,2.807,1.749,4.912c0,1.529-0.255,2.783-0.764,3.762
		c-0.51,0.979-1.245,1.74-2.208,2.284c-0.963,0.545-2.162,0.816-3.599,0.816c-1.46,0-2.669-0.234-3.625-0.704
		c-0.957-0.471-1.732-1.214-2.327-2.231C197.871,67.551,197.573,66.278,197.573,64.749z M201.574,64.767
		c0,1.321,0.242,2.271,0.728,2.847c0.486,0.577,1.146,0.866,1.982,0.866c0.86,0,1.525-0.283,1.996-0.848
		c0.471-0.565,0.707-1.58,0.707-3.043c0-1.231-0.246-2.132-0.737-2.7c-0.492-0.567-1.159-0.852-2.001-0.852
		c-0.807,0-1.454,0.288-1.942,0.865C201.817,62.479,201.574,63.435,201.574,64.767z"/>
	<path fill="#002656" d="M212.639,64.749c0-2.136,0.589-3.798,1.767-4.988c1.177-1.189,2.816-1.784,4.918-1.784
		c2.155,0,3.815,0.584,4.98,1.753c1.166,1.169,1.749,2.807,1.749,4.912c0,1.529-0.255,2.783-0.764,3.762
		c-0.51,0.979-1.245,1.74-2.208,2.284c-0.963,0.545-2.162,0.816-3.599,0.816c-1.46,0-2.668-0.234-3.625-0.704
		c-0.957-0.471-1.732-1.214-2.327-2.231S212.639,66.278,212.639,64.749z M216.639,64.767c0,1.321,0.243,2.271,0.729,2.847
		c0.486,0.577,1.146,0.866,1.982,0.866c0.86,0,1.525-0.283,1.996-0.848c0.471-0.565,0.707-1.58,0.707-3.043
		c0-1.231-0.246-2.132-0.737-2.7c-0.492-0.567-1.159-0.852-2.001-0.852c-0.807,0-1.454,0.288-1.942,0.865
		C216.883,62.479,216.639,63.435,216.639,64.767z"/>
	<path fill="#002656" d="M228.261,58.199h5.942c1.172,0,2.118,0.16,2.84,0.481c0.721,0.321,1.317,0.783,1.788,1.384
		s0.813,1.3,1.024,2.097c0.212,0.798,0.317,1.643,0.317,2.534c0,1.398-0.157,2.482-0.472,3.253
		c-0.315,0.771-0.753,1.416-1.312,1.937c-0.56,0.521-1.16,0.867-1.802,1.039c-0.877,0.238-1.672,0.357-2.385,0.357h-5.942V58.199z
		 M232.261,61.162v7.147h0.98c0.836,0,1.431-0.094,1.783-0.281c0.354-0.188,0.63-0.515,0.83-0.981s0.301-1.224,0.301-2.271
		c0-1.387-0.224-2.335-0.671-2.847c-0.448-0.512-1.189-0.768-2.226-0.768H232.261z"/>
	<path fill="#002656" d="M258.523,64.919l2.809,0.634c-0.147,0.523-0.289,0.942-0.425,1.258c-0.135,0.315-0.326,0.688-0.573,1.115
		l1.351,0.938c0.165,0.106,0.377,0.234,0.636,0.384l-1.934,2.248c-0.354-0.19-0.72-0.41-1.1-0.66s-0.72-0.464-1.02-0.643
		c-0.624,0.417-1.248,0.72-1.872,0.91c-0.866,0.262-1.849,0.393-2.95,0.393c-1.725,0-3.008-0.362-3.85-1.089
		c-0.843-0.726-1.263-1.605-1.263-2.641c0-0.744,0.247-1.447,0.741-2.11c0.495-0.664,1.304-1.225,2.429-1.683
		c-0.471-0.577-0.795-1.078-0.972-1.504c-0.177-0.425-0.265-0.857-0.265-1.298c0-0.928,0.351-1.692,1.051-2.294
		c0.7-0.601,1.763-0.9,3.188-0.9c1.454,0,2.523,0.285,3.206,0.856s1.024,1.255,1.024,2.052c0,0.446-0.104,0.875-0.313,1.285
		c-0.209,0.411-0.461,0.744-0.755,1c-0.295,0.256-0.821,0.637-1.581,1.142c0.63,0.637,1.286,1.229,1.97,1.776
		C258.237,65.719,258.394,65.329,258.523,64.919z M253.11,65.802c-0.495,0.352-0.823,0.651-0.985,0.901
		c-0.161,0.25-0.242,0.515-0.242,0.795c0,0.434,0.186,0.82,0.556,1.159c0.371,0.34,0.854,0.509,1.448,0.509
		c0.642,0,1.363-0.253,2.164-0.758C255.285,67.813,254.305,66.944,253.11,65.802z M254.391,62.625
		c0.465-0.256,0.824-0.533,1.077-0.834s0.38-0.585,0.38-0.853c0-0.279-0.106-0.516-0.318-0.709s-0.503-0.29-0.874-0.29
		c-0.365,0-0.662,0.106-0.892,0.321c-0.229,0.214-0.345,0.467-0.345,0.759C253.419,61.388,253.743,61.924,254.391,62.625z"/>
	<path fill="#002656" d="M279.038,65.927l3.506,1.071c-0.235,0.993-0.606,1.823-1.112,2.489c-0.507,0.667-1.135,1.169-1.886,1.509
		c-0.751,0.339-1.706,0.508-2.865,0.508c-1.407,0-2.557-0.206-3.448-0.619c-0.893-0.413-1.662-1.14-2.31-2.181
		c-0.647-1.04-0.972-2.372-0.972-3.995c0-2.164,0.569-3.827,1.709-4.989c1.139-1.162,2.751-1.743,4.835-1.743
		c1.631,0,2.912,0.333,3.846,0.999c0.933,0.666,1.626,1.689,2.08,3.069l-3.533,0.795c-0.123-0.398-0.253-0.69-0.388-0.875
		c-0.225-0.31-0.498-0.547-0.821-0.714c-0.324-0.166-0.687-0.25-1.087-0.25c-0.906,0-1.602,0.369-2.084,1.105
		c-0.365,0.547-0.547,1.405-0.547,2.576c0,1.449,0.218,2.443,0.653,2.981c0.436,0.537,1.048,0.807,1.837,0.807
		c0.765,0,1.344-0.218,1.735-0.651C278.577,67.385,278.861,66.754,279.038,65.927z"/>
	<path fill="#002656" d="M283.983,64.749c0-2.136,0.589-3.798,1.767-4.988c1.177-1.189,2.816-1.784,4.918-1.784
		c2.155,0,3.815,0.584,4.98,1.753c1.166,1.169,1.749,2.807,1.749,4.912c0,1.529-0.255,2.783-0.764,3.762
		c-0.51,0.979-1.245,1.74-2.208,2.284c-0.963,0.545-2.162,0.816-3.599,0.816c-1.46,0-2.668-0.234-3.625-0.704
		c-0.957-0.471-1.732-1.214-2.327-2.231S283.983,66.278,283.983,64.749z M287.983,64.767c0,1.321,0.243,2.271,0.729,2.847
		c0.486,0.577,1.146,0.866,1.982,0.866c0.86,0,1.525-0.283,1.996-0.848c0.471-0.565,0.707-1.58,0.707-3.043
		c0-1.231-0.246-2.132-0.737-2.7c-0.492-0.567-1.159-0.852-2.001-0.852c-0.807,0-1.454,0.288-1.942,0.865
		C288.228,62.479,287.983,63.435,287.983,64.767z"/>
	<path fill="#002656" d="M299.508,58.199h5.261l2.029,7.96l2.015-7.96h5.258v13.082h-3.276v-9.977l-2.524,9.977h-2.966l-2.52-9.977
		v9.977h-3.276V58.199z"/>
	<path fill="#002656" d="M316.577,58.199h5.261l2.029,7.96l2.015-7.96h5.258v13.082h-3.276v-9.977l-2.524,9.977h-2.966l-2.52-9.977
		v9.977h-3.276V58.199z"/>
	<path fill="#002656" d="M333.188,64.749c0-2.136,0.589-3.798,1.767-4.988c1.177-1.189,2.816-1.784,4.918-1.784
		c2.155,0,3.815,0.584,4.98,1.753c1.166,1.169,1.749,2.807,1.749,4.912c0,1.529-0.255,2.783-0.764,3.762
		c-0.51,0.979-1.245,1.74-2.208,2.284c-0.963,0.545-2.162,0.816-3.599,0.816c-1.46,0-2.668-0.234-3.625-0.704
		c-0.957-0.471-1.732-1.214-2.327-2.231S333.188,66.278,333.188,64.749z M337.188,64.767c0,1.321,0.243,2.271,0.729,2.847
		c0.486,0.577,1.146,0.866,1.982,0.866c0.86,0,1.525-0.283,1.996-0.848c0.471-0.565,0.707-1.58,0.707-3.043
		c0-1.231-0.246-2.132-0.737-2.7c-0.492-0.567-1.159-0.852-2.001-0.852c-0.807,0-1.454,0.288-1.942,0.865
		C337.433,62.479,337.188,63.435,337.188,64.767z"/>
	<path fill="#002656" d="M348.811,58.199h5.942c1.172,0,2.118,0.16,2.84,0.481c0.721,0.321,1.317,0.783,1.788,1.384
		s0.813,1.3,1.024,2.097c0.212,0.798,0.317,1.643,0.317,2.534c0,1.398-0.157,2.482-0.472,3.253
		c-0.315,0.771-0.753,1.416-1.312,1.937c-0.56,0.521-1.16,0.867-1.802,1.039c-0.877,0.238-1.672,0.357-2.385,0.357h-5.942V58.199z
		 M352.811,61.162v7.147h0.98c0.836,0,1.431-0.094,1.783-0.281c0.354-0.188,0.63-0.515,0.83-0.981s0.301-1.224,0.301-2.271
		c0-1.387-0.224-2.335-0.671-2.847c-0.448-0.512-1.189-0.768-2.226-0.768H352.811z"/>
	<path fill="#002656" d="M362.983,58.199h4.01v13.082h-4.01V58.199z"/>
	<path fill="#002656" d="M368.953,58.199h12.16v3.23h-4.08v9.852h-4V61.43h-4.08V58.199z"/>
	<path fill="#002656" d="M381.617,58.199h4.443l2.608,4.413l2.614-4.413h4.419l-5.033,7.603v5.479h-4.009v-5.479L381.617,58.199z"/>
</g>
</svg>
